<?xml version="1.0" standalone="no"?>
<!DOCTYPE svg PUBLIC "-//W3C//DTD SVG 20010904//EN"
 "http://www.w3.org/TR/2001/REC-SVG-20010904/DTD/svg10.dtd">
<svg version="1.0" xmlns="http://www.w3.org/2000/svg"
 width="1280.000000pt" height="902.000000pt" viewBox="0 0 1280.000000 902.000000"
 preserveAspectRatio="xMidYMid meet">
<metadata>
Created by potrace 1.15, written by Peter Selinger 2001-2017
</metadata>
<g transform="translate(0.000000,902.000000) scale(0.100000,-0.100000)"
fill="#0FA36B" stroke="none">
<path d="M220 8778 c0 -50 24 -253 30 -258 4 -3 12 -66 19 -140 7 -74 15 -142
18 -150 3 -8 5 -31 4 -51 -1 -21 2 -40 8 -44 6 -3 11 -28 11 -54 0 -26 5 -52
11 -58 6 -6 34 -57 63 -114 113 -222 208 -405 217 -415 14 -18 99 -192 99
-204 0 -5 5 -10 10 -10 6 0 10 -6 10 -14 0 -8 27 -46 60 -84 33 -39 60 -74 60
-80 0 -5 16 -24 35 -41 19 -17 35 -33 35 -37 0 -3 38 -51 85 -105 47 -54 85
-101 85 -104 0 -3 37 -50 83 -103 45 -53 98 -117 117 -142 80 -105 158 -187
372 -392 124 -120 229 -218 233 -218 4 0 50 -42 104 -94 240 -235 481 -456
496 -456 4 0 56 -43 115 -95 59 -52 111 -95 115 -95 4 0 19 -12 34 -26 46 -45
279 -244 286 -244 4 0 56 -43 115 -95 59 -52 112 -95 117 -95 4 0 24 -18 43
-40 19 -22 39 -40 43 -40 4 0 39 -25 77 -55 38 -30 72 -55 75 -55 3 0 41 -29
84 -65 43 -36 83 -65 89 -65 5 0 17 -11 26 -25 9 -14 21 -25 27 -25 6 0 47
-29 90 -65 43 -36 83 -65 89 -65 5 0 15 -9 22 -20 7 -11 16 -20 21 -20 10 0
151 -111 155 -122 2 -4 9 -8 15 -8 6 0 43 -27 84 -60 40 -33 75 -60 79 -60 3
0 42 -29 85 -65 43 -36 81 -65 85 -65 3 0 15 -11 26 -25 11 -14 24 -25 30 -25
5 0 44 -29 86 -65 41 -36 81 -65 88 -65 7 0 18 -9 24 -20 6 -11 15 -20 21 -20
5 0 39 -23 74 -50 35 -28 67 -50 70 -50 3 0 38 -26 76 -57 39 -31 88 -68 109
-82 21 -14 70 -52 109 -83 38 -32 73 -58 76 -58 3 0 41 -28 85 -62 67 -54 156
-116 218 -153 9 -5 52 -36 95 -67 43 -32 81 -58 84 -58 3 0 34 -23 69 -50 35
-28 68 -50 74 -50 5 0 15 -9 22 -20 7 -11 17 -20 22 -20 4 0 37 -22 72 -50 35
-27 66 -50 69 -50 3 0 36 -24 73 -53 37 -30 75 -57 85 -60 9 -4 17 -11 17 -17
0 -5 5 -10 11 -10 5 0 41 -25 78 -55 38 -30 72 -55 76 -55 4 0 38 -24 74 -53
36 -29 85 -65 109 -81 30 -20 41 -34 37 -46 -5 -15 5 -18 72 -23 l78 -7 47 53
c26 28 48 56 48 61 0 15 448 471 477 486 15 8 47 29 70 47 22 18 53 37 67 43
14 5 26 14 26 20 0 5 6 10 14 10 7 0 24 8 37 18 13 11 54 27 90 37 l67 17 63
-30 c216 -101 252 -120 327 -175 29 -20 56 -37 62 -37 5 0 15 -9 22 -20 7 -11
17 -20 22 -20 4 0 30 -16 56 -35 26 -19 51 -35 55 -35 7 0 170 -131 223 -179
12 -12 25 -21 28 -21 3 0 45 -33 92 -73 48 -40 94 -76 102 -79 14 -6 244 -209
354 -312 26 -25 50 -46 53 -46 2 0 71 -61 153 -135 82 -74 151 -135 155 -135
4 0 56 -43 116 -95 59 -52 111 -95 116 -95 4 0 19 -12 33 -26 30 -31 187 -154
195 -154 3 0 37 -25 75 -55 38 -30 74 -55 79 -55 6 0 11 -5 11 -10 0 -6 10
-14 23 -19 12 -5 46 -27 74 -50 29 -22 56 -41 60 -41 4 0 37 -23 72 -50 36
-28 70 -50 76 -50 7 0 29 -13 50 -30 21 -16 44 -30 51 -30 8 0 14 -4 14 -8 0
-4 17 -14 38 -21 20 -8 39 -17 42 -20 3 -3 21 -14 40 -24 19 -10 89 -46 155
-80 l120 -63 14 -64 c7 -36 19 -68 25 -72 16 -10 15 -387 -1 -419 -13 -26 -33
-96 -33 -117 0 -18 409 -13 431 5 8 6 48 19 89 29 41 9 77 20 80 24 3 3 33 13
68 20 34 7 62 17 62 22 0 5 6 8 13 7 12 -2 49 12 132 51 22 10 52 22 68 25 15
4 27 11 27 16 0 5 6 9 14 9 8 0 39 20 69 45 31 25 59 45 63 45 15 0 110 89
124 116 8 16 31 53 52 82 30 43 37 65 43 122 4 39 11 73 16 76 11 6 12 124 1
124 -4 0 -13 37 -20 83 -12 79 -46 164 -97 241 -11 16 -31 52 -45 80 -19 38
-43 64 -95 103 -38 29 -74 53 -78 53 -4 0 -31 17 -60 39 -29 21 -60 41 -69 44
-10 4 -18 11 -18 17 0 5 -5 10 -11 10 -6 0 -33 16 -59 35 -26 19 -50 35 -54
35 -3 0 -29 16 -56 35 -27 19 -52 35 -56 35 -3 0 -35 21 -72 48 -36 26 -74 52
-84 57 -10 6 -43 27 -73 48 -131 89 -167 113 -183 122 -9 5 -36 22 -59 37 -23
15 -46 28 -51 28 -5 0 -12 7 -16 15 -3 8 -11 15 -17 15 -7 0 -36 18 -65 40
-29 22 -56 40 -60 40 -3 0 -28 16 -54 35 -26 19 -53 35 -59 35 -6 0 -11 5 -11
10 0 6 -10 14 -22 19 -13 5 -38 21 -57 35 -19 14 -41 26 -48 26 -8 0 -16 7
-19 15 -4 8 -11 15 -16 15 -6 0 -32 16 -58 35 -26 19 -51 35 -54 35 -4 0 -31
18 -60 40 -29 22 -58 40 -65 40 -6 0 -14 7 -17 15 -4 8 -11 15 -16 15 -6 0
-32 16 -58 35 -26 19 -50 35 -54 35 -5 0 -68 41 -184 119 -28 20 -60 41 -70
46 -10 6 -48 31 -84 58 -37 26 -69 47 -73 47 -3 0 -30 18 -60 40 -30 22 -58
40 -63 40 -5 0 -26 13 -48 30 -21 16 -44 30 -50 30 -7 0 -14 7 -18 15 -3 8
-10 15 -16 15 -6 0 -31 14 -55 30 -24 17 -49 30 -55 30 -6 0 -13 7 -16 15 -4
8 -11 15 -18 15 -6 0 -29 14 -50 30 -22 17 -43 30 -48 30 -5 0 -33 18 -63 40
-30 22 -58 40 -63 40 -4 0 -36 20 -70 45 -34 25 -65 45 -68 45 -4 0 -37 23
-74 50 -37 28 -70 50 -74 50 -4 0 -31 18 -61 40 -30 22 -58 40 -62 40 -4 0
-26 14 -47 30 -22 17 -46 30 -53 30 -7 0 -13 5 -13 10 0 6 -10 14 -22 19 -13
5 -38 21 -57 35 -19 14 -38 26 -42 26 -4 0 -37 20 -73 45 -37 25 -68 45 -71
45 -3 0 -24 13 -47 30 -22 17 -47 30 -53 30 -7 0 -15 7 -19 15 -3 8 -12 15
-19 15 -21 0 -189 169 -210 210 -10 19 -25 46 -33 60 -8 14 -12 35 -9 47 4 18
-5 29 -48 57 -30 20 -57 36 -61 36 -4 0 -27 14 -51 30 -24 17 -48 30 -54 30
-6 0 -11 5 -11 10 0 6 -5 10 -10 10 -6 0 -29 12 -53 27 -55 36 -95 58 -134 78
-18 8 -33 19 -33 23 0 4 -12 13 -27 20 -38 17 -86 45 -133 76 -22 14 -43 26
-47 26 -5 0 -33 17 -63 38 -30 20 -66 43 -80 50 -44 23 -83 47 -143 85 -31 20
-60 37 -63 37 -3 0 -25 14 -49 30 -24 17 -47 30 -52 30 -4 0 -34 18 -66 40
-31 22 -60 40 -64 40 -3 0 -30 16 -59 35 -29 19 -55 35 -59 35 -3 0 -32 17
-63 38 -31 21 -68 44 -82 51 -46 23 -85 46 -141 84 -31 20 -59 37 -63 37 -4 0
-27 14 -51 30 -24 17 -47 30 -50 30 -4 0 -32 18 -64 40 -31 22 -60 40 -63 40
-4 0 -27 14 -51 30 -25 17 -48 30 -51 30 -3 0 -32 18 -63 40 -32 22 -61 40
-66 40 -4 0 -26 14 -49 30 -22 17 -47 30 -55 30 -7 0 -13 5 -13 10 0 6 -12 15
-26 20 -14 6 -40 21 -58 35 -18 14 -36 25 -40 25 -4 0 -34 18 -66 40 -32 22
-61 40 -64 40 -3 0 -25 14 -49 30 -25 17 -48 30 -52 30 -4 0 -32 18 -64 40
-31 22 -60 40 -64 40 -4 0 -30 16 -57 35 -27 19 -52 35 -56 35 -3 0 -29 16
-58 35 -29 19 -56 35 -60 35 -3 0 -28 16 -55 35 -26 19 -52 35 -55 35 -4 0
-31 16 -60 35 -29 19 -56 35 -60 35 -3 0 -28 16 -55 35 -26 19 -52 35 -56 35
-4 0 -36 20 -72 45 -35 25 -66 45 -69 45 -7 0 -149 86 -189 114 -31 21 -49 32
-127 75 -23 13 -64 39 -91 57 -26 19 -50 34 -53 34 -4 0 -31 16 -60 35 -29 19
-55 35 -59 35 -3 0 -26 14 -50 30 -24 17 -47 30 -50 30 -4 0 -30 16 -59 35
-29 19 -56 35 -60 35 -3 0 -28 15 -55 34 -26 19 -67 45 -90 58 -80 43 -96 53
-152 91 -31 20 -59 37 -62 37 -3 0 -26 14 -50 30 -25 17 -48 30 -51 30 -4 0
-33 17 -64 38 -69 45 -107 67 -149 87 -18 8 -33 19 -33 23 0 4 -12 13 -27 20
-38 17 -86 45 -133 76 -22 14 -42 26 -45 26 -2 0 -31 17 -62 37 -70 45 -107
67 -151 88 -18 9 -56 31 -83 50 -27 19 -52 35 -56 35 -4 0 -23 10 -42 23 -48
32 -136 84 -191 115 -25 13 -52 30 -60 37 -8 7 -28 19 -45 27 -74 38 -109 58
-114 66 -3 4 -17 13 -31 20 -39 20 -81 45 -127 75 -24 15 -47 27 -53 27 -5 0
-10 5 -10 10 0 6 -5 10 -10 10 -6 0 -28 12 -50 26 -47 31 -95 59 -132 76 -16
7 -28 16 -28 20 0 4 -15 15 -32 23 -47 23 -93 49 -138 79 -22 14 -44 26 -50
26 -5 0 -10 5 -10 10 0 6 -5 10 -11 10 -6 0 -31 14 -56 30 -24 17 -47 30 -50
30 -3 0 -31 17 -62 37 -31 21 -72 46 -91 56 -19 9 -57 30 -85 46 -27 17 -68
39 -90 50 -41 21 -61 33 -150 86 -28 16 -66 38 -85 48 -19 10 -57 31 -85 47
-27 16 -68 38 -90 49 -56 28 -99 55 -103 64 -2 4 -9 7 -16 7 -6 0 -28 11 -48
25 -21 14 -49 30 -63 35 -22 8 -25 7 -25 -12z"/>
</g>
</svg>
