<svg width="100" height="95" viewBox="0 0 100 95" fill="none" xmlns="http://www.w3.org/2000/svg">
<path d="M32.1179 94.9183C28.3439 94.9183 25.6451 94.7321 25.6451 94.7321L24.6431 83.5249L25.039 81.2748C25.7904 86.0752 26.6837 91.0438 27.4478 93.2351C27.4478 93.2351 31.558 94.1659 37.5331 94.1661C41.2353 94.1662 45.6527 93.8089 50.2545 92.6514C45.2078 94.5327 37.5495 94.9183 32.1179 94.9183Z" fill="url(#paint0_radial)"/>
<path d="M23.4159 69.8006C23.4159 69.8006 25.7507 88.3679 27.4478 93.2351C27.4478 93.2351 38.2258 95.677 50.2545 92.6514L47.6715 67.1894L23.4159 69.8006Z" fill="#EEBB4C"/>
<path d="M23.905 73.4973C23.6009 71.2727 23.4159 69.8006 23.4159 69.8006L47.6715 67.1894L48.0176 70.5997L23.905 73.4973Z" fill="#F1C868"/>
<path d="M30.9499 80.4514C29.8714 78.946 31.706 77.0415 33.3057 77.3016C33.4023 77.3174 33.4721 77.2589 33.498 77.1878C33.5159 77.3891 33.6186 77.593 33.8163 77.7445C34.1213 77.9785 34.5414 78.0516 34.7565 78.3802C34.9193 78.6288 34.9127 78.9474 34.8369 79.2681C34.6367 80.1161 33.955 80.8216 33.194 81.2016C32.3322 81.632 31.4679 81.1741 30.9499 80.4514ZM33.2488 82.7179C34.6742 82.4072 35.8307 81.1126 36.2688 79.7692C36.7152 78.4001 35.8666 76.3197 34.167 76.4497C33.7532 76.4815 33.5206 76.7597 33.4965 77.0708C33.48 77.0336 33.4472 77.0022 33.3924 76.9876C32.3902 76.7201 31.5319 76.6896 30.6384 77.2982C29.7766 77.8853 29.2924 78.8937 29.3895 79.9305C29.5653 81.8099 31.4582 83.1081 33.2488 82.7179Z" fill="#2C60B5"/>
<path d="M41.6204 76.0749C41.717 76.0907 41.7868 76.0322 41.8127 75.961C41.8306 76.1624 41.9333 76.3663 42.131 76.5177C42.436 76.7518 42.8561 76.8248 43.0712 77.1534C43.234 77.4021 43.2274 77.7206 43.1516 78.0413C42.9514 78.8893 42.2697 79.5948 41.5087 79.9748C40.6469 80.4053 39.7826 79.9473 39.2646 79.2246C38.1861 77.7193 40.0207 75.8148 41.6204 76.0749ZM41.5635 81.4911C42.9889 81.1805 44.1454 79.8858 44.5835 78.5424C45.0299 77.1733 44.1813 75.0929 42.4817 75.2229C42.0679 75.2547 41.8353 75.5329 41.8112 75.8441C41.7947 75.8069 41.7619 75.7754 41.7071 75.7608C40.7049 75.4934 39.8466 75.4628 38.9531 76.0715C38.0913 76.6585 37.6071 77.6669 37.7042 78.7038C37.88 80.5832 39.7729 81.8814 41.5635 81.4911Z" fill="#2C60B5"/>
<path d="M41.1186 78.9129C41.8169 78.9129 41.8169 77.8298 41.1186 77.8298C40.4202 77.8298 40.4202 78.9129 41.1186 78.9129Z" fill="#2C60B5"/>
<path d="M32.6677 78.9607C31.8457 78.9607 31.8457 80.2355 32.6677 80.2355C33.4896 80.2355 33.4896 78.9607 32.6677 78.9607Z" fill="#2C60B5"/>
<path d="M45.5765 83.9362C45.168 83.8245 44.7568 83.8977 44.3405 83.891C44.197 83.7767 44.0056 83.7468 43.8143 83.7868C43.6663 83.7299 43.524 83.6555 43.3786 83.5756C42.9975 83.3664 42.5271 83.7081 42.6447 84.1397C42.7157 84.4001 42.8654 84.6146 43.0641 84.7829C42.9112 85.8656 42.6871 86.7878 41.8823 87.6269C41.1193 88.4227 40.0738 88.8538 39.0029 89.036C37.9769 89.2107 36.8281 89.0482 35.8982 88.5853C35.4021 88.3383 34.9695 87.9919 34.5931 87.5879C34.2046 87.171 33.9883 86.6474 33.6984 86.1693C33.8445 85.9078 33.9337 85.6219 33.9263 85.3229C33.9162 84.9139 33.4645 84.7723 33.1738 85.0112C32.6412 85.4486 32.2642 85.9649 31.6583 86.3252C31.2977 86.5397 30.3379 86.9962 30.8495 87.5173C31.3241 88.0007 32.36 87.4193 32.7839 87.1317C32.829 87.101 32.8739 87.0685 32.9187 87.0348C33.2309 88.1419 34.1935 89.1405 35.1026 89.7084C36.3384 90.4803 37.857 90.698 39.2809 90.5024C41.9411 90.137 44.4779 87.9854 44.6079 85.2391C45.0715 85.2129 45.5123 85.0604 45.7992 84.7794C46.0706 84.5133 45.9402 84.0355 45.5765 83.9362Z" fill="#2C60B5"/>
<path d="M86.9138 92.6083L62.5512 91.3842C62.5512 91.3842 65.1504 75.7476 65.4899 70.9423C65.7349 67.4696 77.1911 66.9879 83.5266 66.9879C85.958 66.9879 87.635 67.0589 87.635 67.0589L86.9138 92.6083Z" fill="url(#paint1_radial)"/>
<path d="M87.638 66.6291C87.638 66.6291 86.5442 88.6195 85.6971 91.8545L61.0926 90.4611C61.0926 90.4611 65.1272 75.4041 64.005 66.0621L87.638 66.6291Z" fill="#EEBB4C"/>
<path d="M64.2276 69.7579C64.2088 68.7371 64.1168 66.9902 64.005 66.0621L87.638 66.6291C87.638 66.6291 87.5299 68.8516 87.4375 70.5599L64.2276 69.7579Z" fill="#F1C868"/>
<path d="M73.0142 79.5582C73.295 79.5778 73.472 79.2306 73.3329 79.003C72.9058 78.3052 72.2903 77.887 71.6623 77.3777C70.9425 76.7941 70.2566 76.1673 69.644 75.4714C68.944 74.676 67.7492 75.8592 68.4785 76.6368C69.1073 77.3075 69.8 77.9052 70.5453 78.4428C71.3117 78.9959 72.056 79.4912 73.0142 79.5582Z" fill="#2C60B5"/>
<path d="M82.2783 75.4829C81.4639 76.0004 80.6619 76.5487 79.8548 77.0798C79.1035 77.5746 78.2317 78.085 77.6611 78.7928C77.2583 79.2921 77.7479 79.9518 78.3405 79.6733C79.1218 79.306 79.837 78.7623 80.5835 78.3265C81.4158 77.8406 82.2903 77.4096 83.1054 76.898C83.9984 76.3374 83.1725 74.9146 82.2783 75.4829Z" fill="#2C60B5"/>
<path d="M78.1728 75.5052C79.6536 76.2743 81.6583 74.3315 82.4202 73.2383C82.8302 72.65 81.8894 71.9242 81.4268 72.4719C80.9701 73.0125 80.5422 73.5512 79.9694 73.9782C79.3952 74.4063 78.6415 74.5491 78.1098 75.016C77.9627 75.1453 78.0016 75.4162 78.1728 75.5052Z" fill="#2C60B5"/>
<path d="M71.2005 74.9094C71.5662 75.166 72.0212 75.3542 72.461 75.4225C72.9487 75.4983 73.3113 75.3635 73.7771 75.2595C74.0791 75.192 74.0617 74.7453 73.7771 74.6679C73.2388 74.5215 72.5127 74.123 72.0736 73.7777C71.5126 73.3365 71.309 72.6351 70.7508 72.2242C70.3069 71.8975 69.8314 72.3573 69.7774 72.7828C69.6708 73.6212 70.5774 74.472 71.2005 74.9094Z" fill="#2C60B5"/>
<path d="M73.4978 86.6129C73.5224 86.5021 73.5243 86.3799 73.4954 86.2471C73.3921 85.7742 73.2614 85.3088 73.1419 84.8396C73.0906 84.6384 73.044 84.4273 72.9857 84.2197C73.5527 84.1949 74.1197 84.1529 74.6839 84.1049C74.7047 84.1033 74.7261 84.101 74.7471 84.099C74.7071 84.7708 74.8942 85.5082 75.2248 85.9941C75.1242 86.0306 75.0233 86.0658 74.923 86.1027C74.4668 86.2705 73.9845 86.4366 73.4978 86.6129ZM71.6471 84.2423C71.6489 84.5069 71.6813 84.7747 71.7086 85.0337C71.7661 85.5827 71.8166 86.137 71.9447 86.6747C71.9927 86.8756 72.0918 87.0187 72.2176 87.1128C71.8311 87.2786 71.454 87.4594 71.0963 87.6617C71.1326 86.5027 70.94 85.0747 70.2704 84.2161C70.7265 84.2599 71.2002 84.2463 71.6471 84.2423ZM80.3032 84.2972C78.9935 84.6931 77.6938 85.1197 76.4027 85.5721L76.4026 85.5716C76.2803 85.2118 76.0996 84.8769 75.9793 84.5156C75.9218 84.3426 75.8839 84.1653 75.8496 83.9873C76.3776 83.9257 76.9095 83.8496 77.4377 83.7538C77.4348 84.0579 77.4782 84.3638 77.6461 84.5854C78.0209 85.0799 78.6944 84.8951 78.7691 84.2811C78.801 84.0212 78.6902 83.7561 78.6237 83.5076L78.6215 83.5015C79.0616 83.3911 79.4936 83.2636 79.9108 83.1144C80.8964 82.7619 80.5136 81.2827 79.4753 81.534C77.8098 81.9371 76.1803 82.3601 74.4868 82.6486C73.6411 82.7927 72.7901 82.8832 71.9395 82.9898C71.1108 83.0937 70.1621 83.0495 69.3771 83.3499C69.0466 83.4764 69.0437 83.8991 69.3771 84.0246C69.4496 84.0519 69.524 84.0749 69.5993 84.096C69.5298 84.168 69.4826 84.2634 69.4766 84.3688C69.4429 84.9658 69.5824 85.5844 69.6047 86.184C69.6314 86.9015 69.5828 87.6077 69.5261 88.3217C69.4664 89.0719 70.3059 89.2331 70.7661 88.8535C72.2992 88.6087 73.829 87.8881 75.2823 87.4062C77.0759 86.8117 78.8904 86.281 80.7186 85.8034C81.6927 85.5489 81.2691 84.0053 80.3032 84.2972Z" fill="#2C60B5"/>
<path d="M69.3897 62.7647C63.9582 62.7647 56.2997 62.3791 51.2531 60.4978C55.8549 61.6553 60.2723 62.0125 63.9745 62.0125C69.9496 62.0125 74.0598 61.0814 74.0598 61.0814C74.7833 59.0064 75.6225 54.4422 76.3476 49.8872C76.5317 49.8814 76.7499 49.8737 76.9994 49.8638L75.8624 62.5785C75.8624 62.5785 73.1636 62.7647 69.3897 62.7647Z" fill="url(#paint2_radial)"/>
<path d="M78.0917 37.6468C78.0917 37.6468 75.7569 56.2141 74.0598 61.0814C74.0598 61.0814 63.2818 63.5233 51.2531 60.4978L53.8361 35.0356L78.0917 37.6468Z" fill="#EEBB4C"/>
<path d="M77.6026 41.3436C77.9066 39.119 78.0917 37.6468 78.0917 37.6468L53.8361 35.0356L53.4899 38.4461L77.6026 41.3436Z" fill="#F1C868"/>
<path d="M59.373 50.9732C60.8639 51.5061 62.049 49.7718 62.55 48.6294C62.9259 47.7725 63.138 46.8486 63.1451 45.9115C63.1507 45.158 63.0003 43.8312 62.1639 43.5477C61.9472 43.4742 61.637 43.6303 61.6003 43.8676C61.5098 44.4544 61.9112 45.0562 61.9634 45.6528C62.0206 46.3046 61.9121 46.9539 61.724 47.5763C61.5 48.3173 60.8515 49.872 59.902 49.9149C59.4874 49.9337 59.2225 49.3446 59.0784 49.0405C58.7601 48.3692 58.6937 47.6751 58.7627 46.947C58.8784 45.7265 59.3877 43.888 60.8829 43.9124C61.0184 43.9146 61.1077 43.7288 60.9983 43.6343C59.4399 42.2909 58.1436 45.1199 57.867 46.2491C57.5065 47.7216 57.6521 50.3583 59.373 50.9732Z" fill="#2C60B5"/>
<path d="M70.9085 47.5623C70.8503 46.8484 70.64 45.5529 69.7428 45.4565C69.6497 45.4465 69.5775 45.5264 69.5487 45.6042C69.3437 46.1606 69.7389 46.8591 69.8123 47.4171C69.9 48.0835 69.8317 48.7592 69.6635 49.4066C69.5025 50.0259 68.9037 51.5108 68.0502 50.9598C67.5058 50.6083 67.1766 49.7031 66.995 49.1257C66.8199 48.5693 66.8184 47.9608 66.8433 47.3844C66.87 46.774 66.9721 46.1177 67.2366 45.5624C67.5033 45.0025 67.9046 44.9538 68.4345 44.7661C68.5916 44.7104 68.6233 44.5466 68.5255 44.4217C68.0624 43.8304 67.2531 44.0918 66.778 44.5085C66.154 45.0559 65.8864 46.0232 65.7646 46.8088C65.491 48.5711 65.8112 50.81 67.3436 51.9538C68.8135 53.0512 70.0593 51.4783 70.5575 50.2103C70.8826 49.3832 70.9805 48.443 70.9085 47.5623Z" fill="#2C60B5"/>
<path d="M67.652 46.3877C67.5566 46.6692 67.4743 47.0226 67.6455 47.2946C67.7984 47.5379 68.1431 47.5379 68.2962 47.2946C68.4673 47.0226 68.3851 46.6692 68.2897 46.3877C68.1829 46.073 67.7586 46.073 67.652 46.3877Z" fill="#2C60B5"/>
<path d="M59.5936 44.9167C59.3341 45.312 59.3488 45.9171 59.4572 46.3516C59.5249 46.6238 59.8922 46.7194 60.0854 46.5176C60.3204 46.2724 60.3858 46.0594 60.4303 45.726C60.4638 45.4733 60.4045 45.1313 60.264 44.9167C60.1001 44.6666 59.7576 44.667 59.5936 44.9167Z" fill="#2C60B5"/>
<path d="M69.4295 56.0793C69.3636 56.0536 69.2945 56.0391 69.2238 56.0327C68.5103 53.7153 65.9366 52.6528 63.6607 52.862C61.8191 53.031 59.1997 54.0055 58.3357 55.8614C58.2858 55.7686 58.2333 55.677 58.1751 55.5892C58.115 55.4988 58.0376 55.4273 57.957 55.3561C57.9143 55.3137 57.8634 55.2845 57.8064 55.2664C57.6168 55.0333 57.3063 55.2878 57.3446 55.537C57.2665 55.8728 57.4714 56.3083 57.5595 56.6073C57.7277 57.1782 57.7761 57.9522 58.1173 58.4436C58.3475 58.7752 58.9114 58.7699 59.0195 58.3257C59.1579 57.7582 58.8947 57.1217 58.6609 56.5752C59.2108 55.8893 59.7396 55.2441 60.5044 54.7538C61.3945 54.1835 62.4697 53.8398 63.5252 53.7977C64.4791 53.7596 65.4433 53.9524 66.2751 54.4273C67.1662 54.936 67.585 55.7254 67.8936 56.6551C67.6252 56.9473 67.4278 57.3334 67.4367 57.7138C67.4495 58.2658 68.1734 58.4606 68.4633 57.9919C68.6138 57.7487 68.689 57.5003 68.8729 57.275C68.9224 57.2144 68.9777 57.1618 69.0355 57.1134C69.0573 57.0982 69.0778 57.0817 69.0976 57.0644C69.263 56.9374 69.4442 56.8337 69.588 56.68C69.7864 56.4684 69.68 56.178 69.4295 56.0793Z" fill="#2C60B5"/>
<path d="M76.9993 49.8638L78.0917 37.6468L73.41 37.1428L71.3171 25.2534L100 45.7418C93.1885 48.9642 81.0338 49.7038 76.9993 49.8638Z" fill="url(#paint3_radial)"/>
<path d="M76.3475 49.8872C76.8442 46.7671 77.2873 43.6504 77.6026 41.3436C77.9002 39.166 78.0838 37.7094 78.0914 37.6488C78.0914 37.6488 78.0914 37.6488 78.0914 37.6486C78.0914 37.6486 78.0914 37.6485 78.0914 37.6483C78.0914 37.6483 78.0914 37.6483 78.0915 37.6482C78.0915 37.6481 78.0915 37.6479 78.0915 37.6478C78.0915 37.6475 78.0915 37.6474 78.0917 37.6471C78.0917 37.6471 78.0917 37.6471 78.0917 37.647C78.0917 37.647 78.0917 37.647 78.0917 37.6468L76.9993 49.8638C76.7499 49.8738 76.5317 49.8814 76.3475 49.8872Z" fill="url(#paint4_radial)"/>
<path d="M75.6565 49.9056L74.0748 40.9197L77.6026 41.3436C77.2874 43.6504 76.8442 46.7671 76.3475 49.8872C75.902 49.9016 75.6565 49.9056 75.6565 49.9056ZM78.0914 37.6488C78.0914 37.6488 78.0914 37.6488 78.0914 37.6486C78.0914 37.6488 78.0914 37.6488 78.0914 37.6488ZM78.0914 37.6484C78.0914 37.6484 78.0914 37.6483 78.0916 37.6482C78.0914 37.6483 78.0914 37.6484 78.0914 37.6484ZM78.0916 37.6478C78.0916 37.6475 78.0916 37.6474 78.0917 37.6471C78.0916 37.6474 78.0916 37.6475 78.0916 37.6478ZM78.0917 37.6471C78.0917 37.6471 78.0917 37.6471 78.0917 37.647C78.0917 37.6471 78.0917 37.6471 78.0917 37.6471Z" fill="#8A612D"/>
<path d="M77.6026 41.3436L74.0747 40.9197L73.41 37.1428L78.0917 37.6468C78.0917 37.647 78.0917 37.647 78.0917 37.647C78.0917 37.6471 78.0917 37.6471 78.0917 37.6471C78.0915 37.6474 78.0915 37.6475 78.0915 37.6478C78.0915 37.6479 78.0915 37.6481 78.0915 37.6482C78.0914 37.6483 78.0914 37.6483 78.0914 37.6483C78.0914 37.6485 78.0914 37.6486 78.0914 37.6486C78.0914 37.6488 78.0914 37.6488 78.0914 37.6488C78.0838 37.7094 77.9002 39.166 77.6026 41.3436Z" fill="#8A6739"/>
<path d="M71.3173 25.2534C71.3173 25.2534 75.221 43.5553 77.3255 48.2608C77.3255 48.2608 88.2719 49.7781 100 45.7418L95.2634 20.591L71.3173 25.2534Z" fill="#EEBB4C"/>
<path d="M72.1185 28.8952C71.6265 26.7046 71.3173 25.2534 71.3173 25.2534L95.2634 20.591L95.8979 23.9598L72.1185 28.8952Z" fill="#F1C868"/>
<path d="M82.3939 35.7841C83.529 35.1696 84.0196 33.6677 83.9988 32.4563C83.9797 31.3413 83.1344 29.3338 81.6817 29.7793C81.5552 29.8181 81.4812 29.9707 81.5556 30.0891C82.0406 30.8603 82.78 31.2387 82.8866 32.2321C82.9739 33.0458 82.7276 33.9491 82.1629 34.552C81.5343 35.2229 80.7717 34.8909 80.1923 34.3373C79.1506 33.3423 79.5876 31.4242 80.9645 30.9623C81.1498 30.9 81.107 30.65 80.9199 30.6328C80.4879 30.5928 80.2182 30.5198 79.8068 30.7258C79.4084 30.9253 79.1276 31.2219 78.8865 31.5926C78.3885 32.3571 78.4604 33.4921 78.8423 34.283C79.4757 35.5952 80.9978 36.5398 82.3939 35.7841Z" fill="#2C60B5"/>
<path d="M80.651 32.917C80.5523 33.0499 80.5627 33.2304 80.5895 33.3827C80.6263 33.5919 80.8564 33.738 81.0562 33.738C81.2532 33.738 81.4309 33.6138 81.504 33.4339C81.5469 33.3636 81.5715 33.2876 81.581 33.2026C81.5927 33.1425 81.5934 33.081 81.5751 33.0149C81.5445 32.9031 81.4721 32.8159 81.3753 32.7548C81.2888 32.7003 81.1972 32.6668 81.0932 32.6668C81.0452 32.6706 80.9976 32.6771 80.9506 32.6867C80.8163 32.7134 80.7276 32.8141 80.651 32.917Z" fill="#2C60B5"/>
<path d="M89.2595 33.8964C91.7501 33.503 91.8998 29.3915 89.9911 28.2187C89.8606 28.1386 89.7176 28.2948 89.7877 28.4219C90.4253 29.5766 91.2369 32.1749 89.4334 32.7836C88.547 33.0828 87.5607 32.3938 87.1491 31.6553C86.946 31.2908 86.9017 30.8362 86.9764 30.431C87.036 30.1079 87.3891 29.4828 87.6883 29.3179C87.8752 29.215 87.7401 28.9609 87.5517 28.9939C87.2512 29.0465 87.0417 28.9989 86.743 29.1363C86.47 29.2619 86.2827 29.5401 86.134 29.79C85.7949 30.3604 85.8074 31.0554 85.9628 31.678C86.3114 33.075 87.8297 34.1224 89.2595 33.8964Z" fill="#2C60B5"/>
<path d="M88.4167 31.6194C88.5609 31.6194 88.701 31.5613 88.803 31.4594C88.8707 31.3912 88.9175 31.3108 88.9434 31.2183C88.9694 31.1215 88.9694 31.0247 88.9434 30.9279C88.9392 30.8997 88.9348 30.8714 88.9304 30.8431C88.9051 30.7529 88.8594 30.6745 88.7933 30.608C88.6939 30.5085 88.5574 30.4519 88.4167 30.4519C88.3206 30.4522 88.2309 30.4766 88.1478 30.5247C88.0401 30.5877 87.9227 30.7142 87.9028 30.8431C87.8986 30.8714 87.8942 30.8997 87.89 30.9279C87.8666 31.0798 87.8643 31.2109 87.9449 31.3488C88.0423 31.515 88.2241 31.6194 88.4167 31.6194Z" fill="#2C60B5"/>
<path d="M92.2244 38.117C92.2151 38.9033 92.1657 39.6918 92.0373 40.4684C91.7897 41.9664 91.1927 43.4228 89.8339 44.2236C88.0934 45.2492 86.0164 44.7617 84.4025 43.754C82.758 42.7272 81.5791 41.1271 80.6688 39.4431C81.3955 39.4943 82.1744 39.3388 82.8639 39.246C84.0311 39.089 85.1884 38.8463 86.3398 38.6017C87.4703 38.3616 88.593 38.0907 89.7156 37.8168C90.5449 37.6145 91.4004 37.4602 92.2278 37.2392C92.223 37.5265 92.2281 37.8174 92.2244 38.117ZM93.1528 35.8769C93.0217 35.5277 92.5194 35.4876 92.4042 35.8769C92.393 35.9147 92.3854 35.9519 92.3756 35.9894C90.3948 36.2668 88.4136 36.9436 86.4805 37.4394C85.3373 37.7324 84.1885 38.0041 83.0315 38.2371C82.1126 38.422 81.0542 38.4894 80.1716 38.838C79.9185 38.814 79.6368 39.0561 79.7047 39.361C80.2054 41.6125 81.9082 43.5647 83.765 44.8446C85.6421 46.1384 87.9621 46.4499 90.0551 45.5094C91.7164 44.763 92.6212 43.0711 93.038 41.38C93.2621 40.471 93.3457 39.5234 93.3856 38.5902C93.4251 37.6711 93.4776 36.7426 93.1528 35.8769Z" fill="#2C60B5"/>
<path d="M45.8453 30.9522C45.8453 30.9522 43.8112 15.232 42.7462 10.5338C41.6811 5.83593 62.8219 0.41205 62.8219 0.41205L69.5208 25.0784L45.8453 30.9522Z" fill="url(#paint5_radial)"/>
<path d="M62.7007 1.90735e-06C62.7007 1.90735e-06 68.0132 21.3668 68.1379 24.7086L44.1818 30.4905C44.1818 30.4905 43.6897 14.9099 39.9138 6.29188L62.7007 1.90735e-06Z" fill="#EEBB4C"/>
<path d="M41.1953 9.76522C40.8822 8.79364 40.289 7.14802 39.9138 6.29188L62.7007 5.72205e-06C62.7007 5.72205e-06 63.2401 2.15855 63.6456 3.82066L41.1953 9.76522Z" fill="#F1C868"/>
<path d="M50.3764 14.8215C49.4502 14.5213 48.4514 14.2699 47.4752 14.2325C46.9132 14.211 46.7784 15.117 47.3412 15.2219C48.2717 15.3956 49.1885 15.5649 50.1073 15.7974C50.9009 15.9983 51.7364 16.3407 52.5683 16.2903C52.7429 16.2797 52.859 16.0638 52.7174 15.9303C52.0881 15.3377 51.1792 15.0817 50.3764 14.8215Z" fill="#2C60B5"/>
<path d="M61.0698 10.3546C61.059 10.2022 60.9218 10.1364 60.7885 10.1932C60.3681 10.3725 60.0731 10.7855 59.7971 11.1339C59.3911 11.6466 58.9722 12.1488 58.5663 12.6616C58.1358 13.2053 56.9292 14.2589 57.1726 15.0348C57.194 15.1031 57.2616 15.1688 57.339 15.1616C57.7418 15.1234 57.9385 14.8513 58.2028 14.5685C58.6079 14.1344 58.9708 13.651 59.3507 13.1943C59.7561 12.7067 60.1369 12.1966 60.512 11.6855C60.7862 11.3119 61.104 10.8382 61.0698 10.3546Z" fill="#2C60B5"/>
<path d="M59.0615 19.3966C58.4078 19.1435 57.7126 18.9843 57.0322 18.8212C56.9106 18.7922 56.7889 18.7663 56.667 18.7397C56.9936 18.1948 57.3235 17.6531 57.5954 17.0848C57.6642 16.9412 57.5516 16.7514 57.3789 16.8034C56.5697 17.0459 55.9999 17.7865 55.5422 18.5245C55.2725 18.4799 55.0019 18.4382 54.73 18.4016C54.2479 18.3367 53.5344 18.1634 53.086 18.4211C52.9625 18.4919 52.9219 18.6912 53.0384 18.7899C53.4062 19.1011 54.0354 19.157 54.4902 19.2712C54.6684 19.3159 54.8462 19.3625 55.0236 19.4104C54.7137 19.9583 54.4285 20.5178 54.1355 21.0752C53.8828 21.5555 53.507 22.0908 53.6087 22.6531C53.6379 22.8147 53.8199 22.8829 53.9623 22.854C54.4628 22.752 54.7594 22.2341 55.0054 21.8251C55.3323 21.2817 55.6115 20.7089 55.8876 20.1388C55.9573 19.995 56.0309 19.8534 56.1065 19.7127C56.2623 19.757 56.4181 19.8013 56.5739 19.845C57.2246 20.0277 57.8687 20.2324 58.5036 20.4639C58.9137 20.6133 59.4385 20.9633 59.8639 20.728C60.018 20.6428 60.1147 20.4665 60.1139 20.2921C60.1115 19.7304 59.4899 19.5623 59.0615 19.3966Z" fill="#2C60B5"/>
<path d="M56.0214 12.9281C57.8354 12.7866 58.6851 10.6314 58.7193 9.08233C58.7264 8.7586 58.2687 8.77946 58.2306 9.08233C58.1345 9.8451 57.8665 10.5018 57.4236 11.1266C57.0043 11.7182 56.3448 12.0407 55.8723 12.5682C55.7597 12.6939 55.8252 12.9435 56.0214 12.9281Z" fill="#2C60B5"/>
<path d="M52.2324 13.556C52.3902 13.4847 52.3818 13.2245 52.2324 13.1507C51.639 12.8564 50.9211 12.81 50.2925 12.5885C49.5405 12.3234 48.9698 11.7688 48.3346 11.3167C48.1133 11.159 47.878 11.4561 47.9871 11.6641C48.6667 12.9585 50.7804 14.2128 52.2324 13.556Z" fill="#2C60B5"/>
<path d="M17.1676 55.4831L12.8285 30.8309V30.831C12.8285 30.8312 12.8286 30.8316 12.8286 30.832C12.8288 30.832 12.8288 30.832 12.8288 30.832C12.8384 30.8776 13.1457 32.3173 13.6298 34.4728C14.8845 40.0607 17.3249 50.458 18.8367 53.8383C18.8367 53.8383 20.8534 54.1178 24.0819 54.1178C28.3765 54.1178 34.8163 53.6235 41.5115 51.3193C33.2599 55.2228 17.1676 55.4831 17.1676 55.4831Z" fill="url(#paint6_radial)"/>
<path d="M12.8285 30.8309C12.8285 30.8309 16.7323 49.1329 18.8367 53.8383C18.8367 53.8383 29.7833 55.3556 41.5115 51.3193L36.7748 26.1685L12.8285 30.8309Z" fill="#EEBB4C"/>
<path d="M13.6298 34.4728C13.1378 32.2821 12.8285 30.8309 12.8285 30.8309L36.7748 26.1685L37.4091 29.5373L13.6298 34.4728Z" fill="#F1C868"/>
<path d="M23.8078 36.0909C22.7168 36.0822 22.7245 37.7382 23.8078 37.7777C24.3419 37.7971 24.8024 37.826 25.1921 38.2278C25.5244 38.5702 25.6559 39.0875 25.6832 39.5493C25.7542 40.7563 24.9334 41.8607 23.7925 42.1993C22.6932 42.5258 21.3085 42.1396 21.1529 40.8616C20.9795 39.4367 21.9318 38.6328 22.9342 37.8326C23.1925 37.6264 22.9079 37.2602 22.6357 37.3201C21.0968 37.6586 19.9598 39.5723 20.1593 41.0815C20.4161 43.0251 22.3744 43.6951 24.1034 43.3264C27.7922 42.54 27.9489 36.1238 23.8078 36.0909Z" fill="#2C60B5"/>
<path d="M28.8178 41.6875C30.0851 42.7204 31.6856 42.2842 32.6679 41.091C33.6165 39.9387 34.1655 38.2471 33.7149 36.7794C33.4896 36.0449 32.9626 35.4312 32.2681 35.103C31.4211 34.7026 30.1066 34.5775 29.3185 35.1568C29.2229 35.227 29.1679 35.3023 29.1026 35.3994C28.9919 35.5638 29.0816 35.7626 29.2246 35.8649C29.796 36.2747 30.7115 36.0761 31.3835 36.255C31.8542 36.3804 32.1317 36.6454 32.3276 37.0306C32.7088 37.7803 32.393 38.9581 31.9201 39.7674C31.6939 40.1545 31.356 40.5359 31.0196 40.7527C30.6426 40.9955 30.3593 41.026 29.9523 40.8818C29.4076 40.6889 28.9488 39.9894 28.8136 39.4216C28.5441 38.2889 29.447 37.432 30.1997 36.7836C30.3003 36.6971 30.242 36.5276 30.1236 36.4953C28.8805 36.1547 27.9193 37.6222 27.6764 38.6303C27.3941 39.8018 27.9087 40.9465 28.8178 41.6875Z" fill="#2C60B5"/>
<path d="M22.9034 40.5855C22.9191 40.6055 22.936 40.625 22.9544 40.6434C23.0625 40.7516 23.2352 40.8371 23.3922 40.8248L23.3971 40.8244C23.5658 40.8112 23.7118 40.7661 23.8346 40.6431C23.9502 40.5277 24.0159 40.369 24.0159 40.2056C24.0159 40.0421 23.9502 39.8835 23.8346 39.768C23.7118 39.6451 23.5658 39.6 23.3971 39.5867L23.3922 39.5863C23.2804 39.5867 23.1763 39.615 23.0796 39.671C23.0169 39.7076 22.9687 39.753 22.927 39.8035C22.6888 40.012 22.6811 40.367 22.9034 40.5855Z" fill="#2C60B5"/>
<path d="M31.032 39.4729C32.0209 39.4729 32.0209 37.9395 31.032 37.9395C30.0431 37.9395 30.0431 39.4729 31.032 39.4729Z" fill="#2C60B5"/>
<path d="M33.6938 47.2139C33.543 47.4489 33.365 47.6615 33.168 47.8555C32.9442 47.1763 32.6401 46.5269 32.387 45.8586C32.2178 45.4115 32.1163 44.7964 31.8057 44.4197C32.4838 44.1931 33.2824 43.9892 33.9067 43.6154C34.0765 44.1718 34.2823 44.7029 34.2811 45.329C34.2797 46.0084 34.0577 46.6464 33.6938 47.2139ZM30.61 49.2267C30.151 47.8598 29.3891 46.6223 28.9336 45.2538C28.9971 45.2383 29.0606 45.2239 29.124 45.2081C29.8418 45.0286 30.5515 44.8232 31.2559 44.5986C31.0902 45.0102 31.2183 45.5144 31.2974 45.9435C31.4384 46.7089 31.745 47.4865 32.0214 48.2115C32.078 48.3601 32.1723 48.4646 32.2837 48.5313C31.7619 48.8427 31.184 49.0702 30.61 49.2267ZM27.9253 49.432C27.9775 48.8587 27.5291 48.2663 27.3232 47.7599C27.1445 47.3209 26.9579 46.887 26.7938 46.4418C26.7139 46.2253 26.6451 45.9732 26.5441 45.7441C27.1205 45.6524 27.6922 45.541 28.261 45.4127C28.4212 46.8272 29.0239 48.0995 29.4551 49.4437C28.9496 49.4965 28.4322 49.4952 27.9253 49.432ZM24.002 45.9049C24.507 45.9995 25.0569 45.9524 25.5758 45.885C25.5395 46.6583 25.9378 47.6446 26.149 48.2584C26.2234 48.4754 26.3058 48.7569 26.4176 49.027C26.3883 49.0142 26.3586 49.0025 26.3297 48.989C25.1069 48.4222 24.2882 47.208 24.002 45.9049ZM34.7166 42.382C34.3922 41.9897 33.9154 42.2514 33.7735 42.6318C33.7319 42.6314 33.6893 42.634 33.644 42.6441C32.9266 42.8038 32.2207 43.1709 31.5236 43.41C30.6435 43.7118 29.7518 43.9849 28.8571 44.2398C27.9216 44.5062 26.9733 44.732 26.0237 44.9408C25.2487 45.1112 24.3789 45.1708 23.6516 45.5012C23.5144 45.526 23.3822 45.6351 23.3695 45.7941C23.3304 46.286 23.2728 46.6673 23.3901 47.1633C23.4857 47.5675 23.6506 47.9761 23.869 48.3293C24.2978 49.0231 24.936 49.5727 25.6457 49.9634C27.171 50.8029 29.0202 50.8847 30.6909 50.5188C32.3484 50.1558 33.9298 49.2253 34.8522 47.7771C35.7953 46.2964 35.8734 43.7806 34.7166 42.382Z" fill="#2C60B5"/>
<path d="M2.94028 30.1875L2.81866 4.62827C2.81866 4.62827 3.28168 4.61954 4.07438 4.61954C8.72049 4.61954 24.6732 4.91928 24.8665 9.02971C25.0505 12.9375 26.5569 24.0212 27.1166 28.049L18.2344 29.7783L2.94028 30.1875Z" fill="url(#paint7_radial)"/>
<path d="M18.2344 29.7783L27.1166 28.049C27.2461 28.9811 27.325 29.5351 27.325 29.5351L18.2344 29.7783Z" fill="#8A6739"/>
<path d="M2.82553 4.19849C2.82553 4.19849 3.40324 26.2086 4.17437 29.4625L28.8049 28.6466C28.8049 28.6466 25.1242 13.4989 26.4652 4.18609L2.82553 4.19849Z" fill="#EEBB4C"/>
<path d="M26.1562 7.87534C26.199 6.8555 26.3317 5.1112 26.4652 4.1861L2.82553 4.1985C2.82553 4.1985 2.8815 6.42287 2.93379 8.13296L26.1562 7.87534Z" fill="#F1C868"/>
<path d="M21.7925 13.2052C21.0041 13.0454 20.1287 13.1932 19.3411 13.2931C18.6095 13.3859 17.5795 13.3953 16.9998 13.9061C16.9103 13.9851 16.9409 14.1348 17.0368 14.192C17.6679 14.5695 18.6423 14.3842 19.3411 14.3514C19.3691 14.35 19.397 14.35 19.425 14.3488C19.3443 14.546 19.3365 14.7813 19.3178 15.0018C19.2945 15.2761 19.2899 15.5586 19.3037 15.8338C19.3221 16.2008 19.5964 16.5081 19.978 16.5081C20.4445 16.5081 20.7069 16.08 20.6281 15.6546C20.5834 15.4125 20.5303 15.1668 20.4674 14.929C20.4148 14.7304 20.3799 14.5126 20.2901 14.3301C20.7417 14.3268 21.1929 14.3274 21.6428 14.3106C22.2551 14.2877 22.4375 13.3359 21.7925 13.2052Z" fill="#2C60B5"/>
<path d="M10.7908 17.617C11.1353 17.4151 11.1814 17.0298 11.0332 16.6926C11.1331 16.9202 11.0261 16.5917 11.0091 16.5286C10.9645 16.3643 10.925 16.1989 10.8879 16.0327C10.8311 15.7781 10.7663 15.4853 10.6255 15.2523C11.5215 15.1967 12.4166 15.126 13.3122 15.0667C14.1121 15.0138 14.1104 13.7553 13.3122 13.8209C12.283 13.9054 11.2595 14.0319 10.2334 14.1449C9.24378 14.2539 8.0984 14.2144 7.17685 14.6169C6.99955 14.6943 6.99625 15.0122 7.17685 15.0885C7.96223 15.4204 8.89334 15.3527 9.74416 15.3031C9.6223 15.5988 9.64261 15.9742 9.65815 16.2767C9.67778 16.6592 9.71117 17.0215 9.86642 17.3746C10.0146 17.712 10.5008 17.7868 10.7908 17.617Z" fill="#2C60B5"/>
<path d="M21.2478 22.4402C21.157 22.5057 21.0718 22.5833 20.9895 22.6653C19.2594 21.5322 17.068 21.0256 15.0174 21.0763C13.2787 21.1194 10.6956 22.1332 10.8571 24.2521C10.5623 24.2259 10.268 24.2991 10.0281 24.5176C9.89858 24.6355 9.98514 24.8142 10.1212 24.8701C10.3397 24.9598 10.5834 24.9838 10.7922 25.0928C11.0118 25.2076 11.0983 25.416 11.2296 25.6095C11.3611 25.8032 11.5787 25.912 11.8141 25.8473C12.062 25.7791 12.282 25.4724 12.1756 25.2107C12.0408 24.8792 11.7492 24.5868 11.4061 24.4128C11.7488 23.6579 11.9349 22.987 12.7012 22.5159C13.4615 22.0486 14.4211 21.9899 15.2887 22.0255C16.8938 22.0914 18.9733 22.6788 20.1711 23.8051L20.2045 23.8336C20.1747 23.8951 20.1456 23.9563 20.1184 24.0163C19.8346 24.643 20.7356 25.1971 21.0564 24.5645C21.3425 24.001 21.5853 23.257 21.5651 22.6221C21.5604 22.4759 21.3844 22.3415 21.2478 22.4402Z" fill="#2C60B5"/>
<path d="M24.3437 85.2248C24.3437 85.2248 8.25145 84.9646 0 81.0609L28.6829 60.5727L27.129 69.4008L23.4159 69.8006L24.643 83.5249L24.3437 85.2248Z" fill="url(#paint8_radial)"/>
<path d="M24.6431 83.5249L23.4159 69.8006V69.8007C23.4159 69.8007 23.4159 69.8007 23.4159 69.8008C23.4159 69.801 23.416 69.8012 23.416 69.8017C23.416 69.8017 23.416 69.8017 23.416 69.8018C23.4219 69.8485 23.6058 71.3088 23.905 73.4973C24.1945 75.6156 24.5915 78.4152 25.039 81.2748L24.6431 83.5249Z" fill="url(#paint9_radial)"/>
<path d="M25.039 81.2748C24.5915 78.4152 24.1945 75.6157 23.905 73.4973L26.4621 73.1901L25.039 81.2748ZM23.416 69.8018C23.416 69.8017 23.416 69.8017 23.416 69.8017C23.416 69.8017 23.416 69.8017 23.416 69.8018ZM23.4159 69.8007V69.8006V69.8007Z" fill="#8A612D"/>
<path d="M23.905 73.4973C23.6058 71.3088 23.4219 69.8486 23.416 69.8018C23.416 69.8017 23.416 69.8017 23.416 69.8017C23.416 69.8013 23.4159 69.801 23.4159 69.8008C23.4159 69.8007 23.4159 69.8007 23.4159 69.8007V69.8006L27.129 69.4008L26.4621 73.1901L23.905 73.4973Z" fill="#8A6739"/>
<path d="M28.6829 60.5727C28.6829 60.5727 24.7792 78.8746 22.6746 83.5801C22.6746 83.5801 11.7282 85.0973 0 81.0609L4.73674 55.9103L28.6829 60.5727Z" fill="#EEBB4C"/>
<path d="M27.8817 64.2146C28.3738 62.0238 28.6829 60.5727 28.6829 60.5727L4.73676 55.9103L4.10236 59.2793L27.8817 64.2146Z" fill="#F1C868"/>
<path d="M9.86626 67.4864C9.88166 67.8251 9.91328 68.1624 9.96235 68.4952C10.0858 69.3349 10.2729 70.3999 10.9966 70.929C11.417 71.2364 11.86 70.7319 11.7852 70.3229C11.7244 69.9919 11.5371 69.726 11.4092 69.4181C11.2462 69.0254 11.1523 68.6052 11.0719 68.1893C10.9123 67.3649 10.956 66.5284 10.9444 65.6949C10.9379 65.2255 10.251 64.9895 10.0226 65.4452C9.70596 66.0768 9.33303 66.6771 8.91948 67.2496C8.4713 67.8701 7.85506 68.3122 7.38064 68.8958C7.21265 69.1024 7.36094 69.4868 7.66507 69.3844C8.53823 69.0901 9.26201 68.3171 9.86626 67.4864Z" fill="#2C60B5"/>
<path d="M20.4648 70.8428C20.1462 70.0552 19.6461 69.4199 19.413 68.5789C19.1739 67.7165 19.1822 66.8481 19.0871 65.9675C19.0349 65.4838 18.3145 65.3056 18.1854 65.8454C17.9671 66.7595 17.3829 67.5787 16.8029 68.3003C16.3102 68.9132 15.5744 69.4651 15.2407 70.1818C15.1139 70.4542 15.3681 70.7086 15.6406 70.5817C16.4016 70.2269 17.0312 69.3817 17.5567 68.7469C17.7303 68.5373 17.8873 68.3226 18.0333 68.1036C18.1431 69.4586 18.601 70.8458 19.5356 71.557C19.9642 71.8832 20.6657 71.3391 20.4648 70.8428Z" fill="#2C60B5"/>
<path d="M18.7645 75.5249C18.2044 75.5788 17.9166 76.0408 17.5857 76.438C17.2307 76.8638 16.8022 77.186 16.3269 77.4642C15.4475 77.9791 14.4298 78.1624 13.4214 78.0927C12.4904 78.0284 11.5852 77.6283 10.9341 76.9611C10.116 76.1228 10.0946 74.9843 9.82825 73.9178C9.75873 73.6394 9.33182 73.5651 9.1977 73.8355C7.88698 76.4785 10.5469 79.0452 12.9923 79.4358C14.3156 79.6469 15.6368 79.4246 16.8434 78.8544C17.7153 78.4424 19.8231 76.8893 19.1037 75.7195C19.0361 75.6097 18.9006 75.5116 18.7645 75.5249Z" fill="#2C60B5"/>
<defs>
<radialGradient id="paint0_radial" cx="0" cy="0" r="1" gradientUnits="userSpaceOnUse" gradientTransform="translate(48.637 50.5648) scale(54.5223)">
<stop stop-color="#426673"/>
<stop offset="1" stop-color="#2C5C73"/>
</radialGradient>
<radialGradient id="paint1_radial" cx="0" cy="0" r="1" gradientUnits="userSpaceOnUse" gradientTransform="translate(48.6369 50.5648) scale(54.5223)">
<stop stop-color="#426673"/>
<stop offset="1" stop-color="#2C5C73"/>
</radialGradient>
<radialGradient id="paint2_radial" cx="0" cy="0" r="1" gradientUnits="userSpaceOnUse" gradientTransform="translate(48.637 50.5648) scale(54.5223)">
<stop stop-color="#426673"/>
<stop offset="1" stop-color="#2C5C73"/>
</radialGradient>
<radialGradient id="paint3_radial" cx="0" cy="0" r="1" gradientUnits="userSpaceOnUse" gradientTransform="translate(48.6369 50.5648) scale(54.5223)">
<stop stop-color="#426673"/>
<stop offset="1" stop-color="#2C5C73"/>
</radialGradient>
<radialGradient id="paint4_radial" cx="0" cy="0" r="1" gradientUnits="userSpaceOnUse" gradientTransform="translate(48.637 50.5648) scale(54.5223)">
<stop stop-color="#253336"/>
<stop offset="1" stop-color="#172F37"/>
</radialGradient>
<radialGradient id="paint5_radial" cx="0" cy="0" r="1" gradientUnits="userSpaceOnUse" gradientTransform="translate(48.637 50.5648) scale(54.5223)">
<stop stop-color="#426673"/>
<stop offset="1" stop-color="#2C5C73"/>
</radialGradient>
<radialGradient id="paint6_radial" cx="0" cy="0" r="1" gradientUnits="userSpaceOnUse" gradientTransform="translate(48.637 50.5648) scale(54.5223)">
<stop stop-color="#426673"/>
<stop offset="1" stop-color="#2C5C73"/>
</radialGradient>
<radialGradient id="paint7_radial" cx="0" cy="0" r="1" gradientUnits="userSpaceOnUse" gradientTransform="translate(48.637 50.5648) scale(54.5223)">
<stop stop-color="#426673"/>
<stop offset="1" stop-color="#2C5C73"/>
</radialGradient>
<radialGradient id="paint8_radial" cx="0" cy="0" r="1" gradientUnits="userSpaceOnUse" gradientTransform="translate(48.637 50.5648) scale(54.5223)">
<stop stop-color="#426673"/>
<stop offset="1" stop-color="#2C5C73"/>
</radialGradient>
<radialGradient id="paint9_radial" cx="0" cy="0" r="1" gradientUnits="userSpaceOnUse" gradientTransform="translate(48.637 50.5648) scale(54.5224)">
<stop stop-color="#253336"/>
<stop offset="1" stop-color="#172F37"/>
</radialGradient>
</defs>
</svg>
