<?xml version="1.0" standalone="no"?>
<!DOCTYPE svg PUBLIC "-//W3C//DTD SVG 20010904//EN"
 "http://www.w3.org/TR/2001/REC-SVG-20010904/DTD/svg10.dtd">
<svg version="1.0" xmlns="http://www.w3.org/2000/svg"
 width="1280.000000pt" height="921.000000pt" viewBox="0 0 1280.000000 921.000000"
 preserveAspectRatio="xMidYMid meet">
<metadata>
Created by potrace 1.15, written by Peter Selinger 2001-2017
</metadata>
<g transform="translate(0.000000,921.000000) scale(0.100000,-0.100000)"
fill="#ffc107" stroke="none">
<path d="M3932 9163 c-322 -186 -1308 -957 -2127 -1663 -569 -490 -1253 -1132
-1497 -1405 -49 -55 -105 -116 -123 -136 -85 -91 -125 -445 -167 -1474 -16
-401 -16 -2064 0 -2465 29 -731 59 -1110 102 -1316 36 -175 21 -166 315 -194
55 -5 204 -16 330 -24 127 -9 298 -20 380 -26 367 -24 1434 -82 2225 -120 118
-6 303 -15 410 -20 107 -5 296 -14 420 -20 124 -5 326 -14 450 -20 124 -5 326
-14 450 -20 477 -21 683 -31 890 -40 252 -11 593 -26 950 -40 140 -6 363 -15
495 -20 132 -5 355 -14 495 -20 140 -6 363 -15 495 -20 350 -14 1179 -45 1620
-60 1239 -41 1636 -51 2125 -53 250 -1 467 1 481 5 66 19 97 202 144 828 l6
85 -110 118 c-128 136 -190 219 -230 309 -45 98 -55 164 -55 363 0 178 1 181
37 303 49 162 93 251 172 342 127 146 121 130 129 357 4 109 11 284 17 388 6
105 12 305 13 446 l1 256 -28 39 c-99 135 -180 282 -219 399 -19 59 -23 90
-23 205 0 122 3 143 29 220 35 105 66 166 123 249 l44 64 -15 204 c-11 146
-19 212 -30 228 -37 56 -180 118 -816 357 -1507 564 -2109 818 -2965 1249
-236 119 -675 340 -975 491 -557 280 -764 377 -1300 608 -1389 600 -2548 1090
-2578 1090 -4 0 -45 -21 -90 -47z"/>
</g>
</svg>
